<?xml version="1.0" encoding="UTF-8"?>
<svg id="Capa_1" data-name="Capa 1" xmlns="http://www.w3.org/2000/svg" viewBox="0 0 760.58 685.54">
  <defs>
    <style>
      .cls-1 {
        fill: #fff86a;
      }

      .cls-1, .cls-2 {
        stroke-width: 17px;
      }

      .cls-1, .cls-2, .cls-3, .cls-4 {
        stroke: #000;
        stroke-miterlimit: 10;
      }

      .cls-2, .cls-3 {
        fill: #ffc007;
      }

      .cls-3 {
        stroke-width: 14px;
      }

      .cls-4 {
        fill: #fff;
        stroke-width: 6px;
      }
    </style>
  </defs>
  <path class="cls-3" d="m440.78,31.56c-30.37-.75-31.14,570.83,0,575.34,10.94,1.58,10.18,6.16,29.51,15.32,16.15,7.66,45.14,21.39,72.92,15.32,32.79-7.17,35.4-35.7,71.18-39.15,9.21-.89,14.83.45,24.31-3.4,21.19-8.61,30.49-30.48,31.25-32.34,8.74-21.39-.32-35.17,10.42-44.26,6.49-5.48,12.27-2.55,22.57-5.11,24.39-6.04,44.17-35.4,46.88-61.28,3.38-32.39-19.1-68.09-19.1-68.09h0c27.15-63.8,22.57-74.9,22.57-74.9-10.02-24.28-48.16-22.37-50.35-42.55-1.1-10.12,8.35-11.91,13.89-27.23,10.33-28.57-6.29-67.19-31.25-85.11-12.65-9.08-17.76-5.9-26.04-15.32-15.95-18.15-1.51-35.1-13.89-52.77-14.85-21.2-42.85-7.11-69.45-34.04-9.74-9.87-8.47-14.27-19.1-22.13-17.81-13.16-38.66-13.55-48.61-13.62-35.79-.23-38.32,16.05-67.71,15.32Z"/>
  <path class="cls-4" d="m436.58,88.8l232.6-22.2s74.15,513.74,61.77,510.82-234.24,38.62-234.24,38.62l-60.12-527.23Z"/>
  <path class="cls-4" d="m431.23,69.48l218.05-22.84s69.51,528.4,57.9,525.4-219.59,39.72-219.59,39.72l-56.36-542.28Z"/>
  <polygon class="cls-4" points="409.58 62.04 627.63 39.2 685.53 564.6 465.94 604.32 409.58 62.04"/>
  <g>
    <path class="cls-2" d="m344.39,26.78c-32.45-.81-36.4-19.57-66.78-18.21-17.86.8-20.57,7.46-59.36,25.5-60.01,27.91-70.09,19.66-81.62,36.43-16.68,24.26-.62,48.87-24.11,74.68-5.13,5.64-4.77,3.23-20.4,16.39-25.96,21.86-38.94,32.79-42.66,43.71-9.93,29.09,22.72,53.6,9.27,72.86-4.66,6.67-8.8,4.04-20.4,12.75-1.2.9-27.49,21.18-29.68,49.18-2.45,31.35,25.97,63.76,25.97,63.75,0,0-10.96,23.17-14.84,38.25-.91,3.53-7.99,32.64,5.56,58.29,11.84,22.39,27.68,19.94,57.5,56.46,8.17,10,11.68,15.94,12.98,18.21,14.45,25.18,6.41,33.65,16.69,47.36,8.76,11.68,26.24,16.89,61.21,27.32,8.24,2.46,8.08,2.1,20.4,5.46,56.87,15.54,55.61,21.95,70.49,21.86,36.78-.23,46.49-39.43,79.76-34.61,11.69,1.69,10.88,6.59,31.53,16.39,17.26,8.19,48.22,22.89,77.91,16.39,35.03-7.67,37.82-38.21,76.05-41.89,9.84-.95,15.85.48,25.97-3.64,22.64-9.21,32.58-32.62,33.39-34.61,9.34-22.89-.35-37.64,11.13-47.36,6.93-5.87,13.11-2.73,24.11-5.46,26.05-6.47,47.2-37.88,50.08-65.57,3.61-34.66-20.4-72.86-20.4-72.86,29-68.27,24.11-80.14,24.11-80.14-10.7-25.98-51.45-23.94-53.79-45.54-1.17-10.83,8.92-12.74,14.84-29.14,11.04-30.57-6.72-71.9-33.39-91.07-13.51-9.71-18.98-6.31-27.82-16.39-17.04-19.42-1.61-37.56-14.84-56.46-15.87-22.68-45.78-7.61-74.2-36.43-10.41-10.56-9.05-15.27-20.4-23.68-19.02-14.08-41.3-14.5-51.94-14.57-38.24-.24-40.94,17.17-72.34,16.39Z"/>
    <line class="cls-2" x1="345.31" y1="25.87" x2="345.31" y2="641.52"/>
  </g>
  <path class="cls-2" d="m454.43,168.62c4.77-4.88,39.35-39.07,91.04-34,58.44,5.74,86.73,56.56,89.11,61"/>
  <path class="cls-2" d="m343.68,121.64c2.97-4.47,24.72-36.05,66.66-41.59,47.41-6.27,78.43,26.31,81.06,29.17"/>
  <path class="cls-2" d="m347.71,559.61c2.63-2.62,21.68-20.96,50.15-18.24,32.19,3.08,47.78,30.34,49.08,32.72"/>
  <path class="cls-2" d="m559.02,396.87c2.63-2.62,21.68-20.96,50.15-18.24,32.19,3.08,47.78,30.34,49.08,32.72"/>
  <path class="cls-2" d="m459.78,347.91c5.3-.83,43.28-6.11,75.69,21.07,36.64,30.73,33.57,75.61,33.24,79.48"/>
  <path class="cls-2" d="m341.71,385.33c3.86-2.49,31.78-19.85,67.63-10.61,40.54,10.44,55.15,45.58,56.36,48.64"/>
  <path class="cls-2" d="m397.56,183.64c3.86-2.49,31.78-19.85,67.63-10.61,40.54,10.44,55.15,45.58,56.36,48.64"/>
  <path class="cls-2" d="m514.56,276.64c3.86-2.49,31.78-19.85,67.63-10.61,40.54,10.44,55.15,45.58,56.36,48.64"/>
  <path class="cls-2" d="m470.56,528.64c3.86-2.49,31.78-19.85,67.63-10.61,40.54,10.44,55.15,45.58,56.36,48.64"/>
  <circle class="cls-2" cx="164.58" cy="200.04" r="15.5"/>
  <circle class="cls-2" cx="109.58" cy="451.04" r="15.5"/>
  <circle class="cls-2" cx="195.58" cy="558.04" r="15.5"/>
  <line class="cls-1" x1="348.08" y1="559.54" x2="217.08" y2="557.54"/>
  <circle class="cls-2" cx="180.58" cy="347.04" r="15.5"/>
  <line class="cls-1" x1="189.08" y1="362.54" x2="260.08" y2="459.54"/>
  <line class="cls-1" x1="170.08" y1="195.54" x2="241.08" y2="112.54"/>
  <line class="cls-1" x1="110.08" y1="428.54" x2="110.08" y2="327.54"/>
  <line class="cls-1" x1="277.08" y1="278.54" x2="165.08" y2="278.54"/>
  <line class="cls-1" x1="165.08" y1="278.54" x2="110.08" y2="333.54"/>
  <line class="cls-1" x1="237.08" y1="117.54" x2="348.08" y2="116.54"/>
  <line class="cls-1" x1="269.08" y1="278.54" x2="348.08" y2="381.54"/>
  <line class="cls-1" x1="342.08" y1="458.54" x2="260.08" y2="459.54"/>
</svg>